<svg width="12" height="12" viewBox="0 0 12 12" fill="none" xmlns="http://www.w3.org/2000/svg">
<path d="M6.33672 10.8566C3.56201 11.0739 1.13168 8.99654 0.914403 6.22183C0.697126 3.44712 2.77448 1.01678 5.54919 0.799507C8.3239 0.58223 10.7542 2.65958 10.9715 5.43429C11.1888 8.209 9.11143 10.6393 6.33672 10.8566ZM6.25896 9.86356C8.49333 9.68859 10.1583 7.74604 9.98332 5.51167C9.80836 3.2773 7.86094 1.61273 5.62657 1.78769C3.3922 1.96266 1.72762 3.91007 1.90259 6.14445C2.07755 8.37882 4.02459 10.0385 6.25896 9.86356ZM3.52706 6.62456C3.308 6.64171 3.12915 6.4843 3.11238 6.27011C3.09523 6.05105 3.24778 5.87258 3.46683 5.85543L5.54056 5.69305L5.32062 2.88426C5.30384 2.67007 5.46088 2.48635 5.67507 2.46958C5.89412 2.45243 6.07784 2.60946 6.09461 2.82365L6.34467 6.017C6.36145 6.23119 6.20441 6.41491 5.98535 6.43206L3.52706 6.62456Z" fill="#403737"/>
</svg>
