<svg width="13" height="10" viewBox="0 0 13 10" fill="none" xmlns="http://www.w3.org/2000/svg">
<path d="M2.69979 9.83905C1.64832 9.92139 1.0608 9.42374 0.979228 8.38201L0.514559 2.44803C0.43451 1.42576 0.92843 0.853231 1.83873 0.781949L3.21635 0.674072C3.72261 0.634429 3.98299 0.707097 4.34585 0.962753L4.64572 1.16457C4.93061 1.36266 5.14154 1.4294 5.49203 1.40196L10.0192 1.04745C11.0707 0.965115 11.6582 1.46276 11.7397 2.50449L12.1316 7.50871C12.2132 8.55044 11.7152 9.13309 10.7854 9.2059L2.69979 9.83905ZM1.47515 2.45607L1.57007 3.66818L10.8142 2.9443L10.7921 2.66196C10.7548 2.18491 10.4882 1.97069 10.0404 2.00576L5.31361 2.37589C4.80735 2.41553 4.53724 2.34363 4.17963 2.09246L3.87937 1.88578C3.58923 1.6832 3.38355 1.62094 3.03793 1.648L2.10329 1.72119C1.66518 1.7555 1.44008 2.00822 1.47515 2.45607ZM2.68349 8.88036L10.5306 8.26589C10.9784 8.23082 11.2084 7.97772 11.1714 7.50553L10.8802 3.78645L1.63601 4.51032L1.92724 8.22941C1.96421 8.7016 2.23078 8.91582 2.68349 8.88036Z" fill="#403737"/>
</svg>
