<svg width="151" height="115" viewBox="0 0 151 115" fill="none" xmlns="http://www.w3.org/2000/svg">
<path d="M60.9833 34.9669C73.1188 49.6204 71.0775 71.3371 56.424 83.4725C41.7705 95.608 20.0538 93.5667 7.91834 78.9132C-4.21709 64.2597 -2.17579 42.543 12.4777 30.4075C27.1312 18.2721 48.8479 20.3134 60.9833 34.9669Z" fill="#EBC8E0"/>
<path d="M100.155 58.576C112.291 73.2295 110.249 94.9463 95.5959 107.082C80.9424 119.217 59.2257 117.176 47.0902 102.522C34.9548 87.8688 36.9961 66.1521 51.6496 54.0167C66.3031 41.8813 88.0198 43.9226 100.155 58.576Z" fill="#EBC8E0"/>
<path d="M103.524 12.4776C115.659 27.1311 113.618 48.8478 98.9647 60.9832C84.3112 73.1187 62.5945 71.0774 50.4591 56.4239C38.3236 41.7704 40.3649 20.0537 55.0184 7.91823C69.6719 -4.2172 91.3886 -2.1759 103.524 12.4776Z" fill="#EBC8E0"/>
<path d="M142.735 43.3766C154.871 58.0301 152.829 79.7468 138.176 91.8822C123.522 104.018 101.806 101.976 89.6701 87.3229C77.5347 72.6694 79.576 50.9526 94.2295 38.8172C108.883 26.6818 130.6 28.7231 142.735 43.3766Z" fill="#EBC8E0"/>
<path d="M65.1549 34.7755L61.4051 57.6157" stroke="white" stroke-width="7" stroke-linecap="round"/>
<path d="M92.2198 39.2189L88.47 62.059" stroke="white" stroke-width="7" stroke-linecap="round"/>
</svg>
