<svg width="114" height="87" viewBox="0 0 114 87" fill="none" xmlns="http://www.w3.org/2000/svg">
<path d="M46.135 26.4532C55.3157 37.5389 53.7714 53.9681 42.6858 63.1488C31.6001 72.3295 15.1709 70.7852 5.99017 59.6995C-3.19055 48.6138 -1.64626 32.1847 9.43943 23.004C20.5251 13.8232 36.9543 15.3675 46.135 26.4532Z" fill="#A0D7E7"/>
<path d="M75.7694 44.314C84.9501 55.3997 83.4058 71.8289 72.3201 81.0096C61.2345 90.1904 44.8053 88.6461 35.6246 77.5604C26.4439 66.4747 27.9881 50.0455 39.0738 40.8648C50.1595 31.6841 66.5887 33.2284 75.7694 44.314Z" fill="#A0D7E7"/>
<path d="M78.318 9.43956C87.4987 20.5253 85.9544 36.9544 74.8687 46.1351C63.783 55.3159 47.3539 53.7716 38.1732 42.6859C28.9924 31.6002 30.5367 15.171 41.6224 5.9903C52.7081 -3.19042 69.1373 -1.64613 78.318 9.43956Z" fill="#A0D7E7"/>
<path d="M107.982 32.8153C117.163 43.901 115.618 60.3302 104.533 69.5109C93.4471 78.6916 77.0179 77.1473 67.8372 66.0617C58.6565 54.976 60.2007 38.5468 71.2864 29.3661C82.3721 20.1854 98.8013 21.7296 107.982 32.8153Z" fill="#A0D7E7"/>
<path d="M49.2911 26.3084L46.4543 43.5875" stroke="white" stroke-width="7" stroke-linecap="round"/>
<path d="M69.7663 29.6699L66.9295 46.949" stroke="white" stroke-width="7" stroke-linecap="round"/>
</svg>
