<svg width="109" height="84" viewBox="0 0 109 84" fill="none" xmlns="http://www.w3.org/2000/svg">
<path d="M35.6402 31.9991C48.9162 37.3609 55.332 52.4699 49.9701 65.7459C44.6083 79.0219 29.4993 85.4376 16.2233 80.0758C2.94728 74.714 -3.46844 59.605 1.89339 46.329C7.25523 33.053 22.3642 26.6372 35.6402 31.9991Z" fill="#C2E7D9"/>
<path d="M70.0205 33.6206C83.2965 38.9824 89.7123 54.0914 84.3504 67.3674C78.9886 80.6434 63.8796 87.0591 50.6036 81.6973C37.3276 76.3355 30.9118 61.2265 36.2737 47.9505C41.6355 34.6744 56.7445 28.2587 70.0205 33.6206Z" fill="#C2E7D9"/>
<path d="M55.7633 1.89337C69.0393 7.2552 75.455 22.3642 70.0932 35.6402C64.7314 48.9162 49.6224 55.332 36.3464 49.9701C23.0703 44.6083 16.6546 29.4993 22.0164 16.2233C27.3783 2.94726 42.4873 -3.46846 55.7633 1.89337Z" fill="#C2E7D9"/>
<path d="M92.7768 8.32755C106.053 13.6894 112.469 28.7984 107.107 42.0744C101.745 55.3504 86.6359 61.7661 73.3599 56.4043C60.0839 51.0425 53.6681 35.9335 59.03 22.6575C64.3918 9.38144 79.5008 2.96572 92.7768 8.32755Z" fill="#C2E7D9"/>
<path d="M38.3338 30.3803L44.0202 46.8442" stroke="white" stroke-width="7" stroke-linecap="round"/>
<path d="M57.8425 23.6422L63.5289 40.106" stroke="white" stroke-width="7" stroke-linecap="round"/>
</svg>
