<svg width="114" height="87" viewBox="0 0 114 87" fill="none" xmlns="http://www.w3.org/2000/svg">
<path d="M67.8373 26.4532C58.6566 37.5389 60.2009 53.9681 71.2866 63.1488C82.3723 72.3295 98.8015 70.7852 107.982 59.6995C117.163 48.6138 115.619 32.1847 104.533 23.004C93.4472 13.8232 77.018 15.3675 67.8373 26.4532Z" fill="#FFD1DC"/>
<path d="M38.2029 44.314C29.0222 55.3997 30.5665 71.8289 41.6522 81.0096C52.7379 90.1904 69.167 88.6461 78.3478 77.5604C87.5285 66.4747 85.9842 50.0455 74.8985 40.8648C63.8128 31.6841 47.3836 33.2284 38.2029 44.314Z" fill="#FFD1DC"/>
<path d="M35.6543 9.43956C26.4736 20.5253 28.0179 36.9544 39.1036 46.1351C50.1893 55.3159 66.6185 53.7716 75.7992 42.6859C84.9799 31.6002 83.4356 15.171 72.3499 5.9903C61.2642 -3.19042 44.8351 -1.64613 35.6543 9.43956Z" fill="#FFD1DC"/>
<path d="M5.99033 32.8153C-3.19039 43.901 -1.64611 60.3302 9.43959 69.5109C20.5253 78.6916 36.9545 77.1473 46.1352 66.0617C55.3159 54.976 53.7716 38.5468 42.6859 29.3661C31.6002 20.1854 15.171 21.7296 5.99033 32.8153Z" fill="#FFD1DC"/>
<path d="M64.6813 26.3084L67.5181 43.5875" stroke="white" stroke-width="7" stroke-linecap="round"/>
<path d="M44.2063 29.6699L47.0431 46.949" stroke="white" stroke-width="7" stroke-linecap="round"/>
</svg>
