<svg width="114" height="87" viewBox="0 0 114 87" fill="none" xmlns="http://www.w3.org/2000/svg">
<path d="M46.1353 26.4532C55.316 37.5389 53.7717 53.9681 42.686 63.1488C31.6003 72.3295 15.1711 70.7852 5.99041 59.6995C-3.1903 48.6138 -1.64602 32.1847 9.43968 23.004C20.5254 13.8232 36.9545 15.3675 46.1353 26.4532Z" fill="#FFE0B2"/>
<path d="M75.7697 44.314C84.9504 55.3997 83.4061 71.8289 72.3204 81.0096C61.2347 90.1904 44.8055 88.6461 35.6248 77.5604C26.4441 66.4747 27.9884 50.0455 39.0741 40.8648C50.1598 31.6841 66.5889 33.2284 75.7697 44.314Z" fill="#FFE0B2"/>
<path d="M78.3182 9.43956C87.499 20.5253 85.9547 36.9544 74.869 46.1351C63.7833 55.3159 47.3541 53.7716 38.1734 42.6859C28.9927 31.6002 30.537 15.171 41.6227 5.9903C52.7084 -3.19042 69.1375 -1.64613 78.3182 9.43956Z" fill="#FFE0B2"/>
<path d="M107.982 32.8153C117.163 43.901 115.619 60.3302 104.533 69.5109C93.4473 78.6916 77.0181 77.1473 67.8374 66.0617C58.6567 54.976 60.201 38.5468 71.2867 29.3661C82.3724 20.1854 98.8015 21.7296 107.982 32.8153Z" fill="#FFE0B2"/>
<path d="M49.2913 26.3084L46.4545 43.5875" stroke="white" stroke-width="7" stroke-linecap="round"/>
<path d="M69.7663 29.6699L66.9295 46.949" stroke="white" stroke-width="7" stroke-linecap="round"/>
</svg>
