<svg width="567" height="813" viewBox="0 0 567 813" fill="none" xmlns="http://www.w3.org/2000/svg">
<g filter="url(#filter0_d_5_476)">
<rect x="0.321289" y="88.7877" width="418" height="741" rx="19" transform="rotate(-12.2536 0.321289 88.7877)" fill="#FAF3E8"/>
<path d="M93.778 154.88C94.3 154.965 94.6001 155.187 94.6785 155.548C94.7643 155.943 94.3456 156.376 93.4225 156.846C92.0039 158.432 91.8077 161.586 92.8336 166.31C94.0685 171.996 95.9557 175.84 98.4953 177.843C99.0412 178.12 99.4257 178.234 99.6491 178.186C100.851 177.925 101.2 175.969 100.695 172.319L100.552 171.163C100.325 170.367 100.143 169.984 100.006 170.014C99.4568 170.385 98.6545 171.081 97.5991 172.101L97.1263 172.285C96.8343 172.348 96.5311 172.153 96.2168 171.7C96.1273 171.288 96.6192 170.695 97.6925 169.922C98.5642 169.05 99.2577 168.557 99.7731 168.445C100.752 168.233 101.485 168.874 101.972 170.369L102.005 170.524C102.96 174.921 102.6 177.86 100.925 179.339C100.417 179.485 100.17 179.592 100.185 179.661C97.6946 180.202 95.2541 177.62 92.8639 171.916C92.2182 170.185 91.7294 168.555 91.3973 167.027L91.2798 166.485C90.1531 161.298 90.5231 157.701 92.3898 155.694C93.0748 155.204 93.5375 154.933 93.778 154.88ZM105.813 168.429C106.775 168.22 107.616 168.945 108.337 170.606C108.312 172.644 107.604 173.814 106.212 174.116L106.109 174.138L106.126 174.216C106.74 175.719 107.64 176.342 108.825 176.085C109.736 175.887 110.305 174.945 110.532 173.259L111.048 172.904C111.426 172.822 111.73 173.061 111.96 173.623C112.192 174.688 111.577 175.874 110.116 177.181L108.929 177.681C107.452 178.002 106.114 177.186 104.917 175.234C104.528 174.437 104.274 173.764 104.154 173.214L104.082 172.879C103.701 171.127 104.155 169.697 105.444 168.59L105.813 168.429ZM105.565 171.882L105.576 171.934L106.272 172.403C106.53 172.347 106.694 171.943 106.764 171.19L106.674 170.778C106.473 170.264 106.303 170.022 106.166 170.052L106.011 170.085C105.754 170.141 105.605 170.74 105.565 171.882ZM111.745 165.926C112.209 165.825 112.683 166.307 113.166 167.371L113.243 167.355C113.728 166.44 114.348 165.9 115.104 165.736C116.389 165.691 117.092 165.943 117.211 166.493C117.161 167.007 116.947 167.306 116.569 167.388L115.523 167.291L115.265 167.347C114.293 167.756 114.239 169.953 115.105 173.939L115.368 175.15C115.38 175.704 115.198 176.023 114.82 176.105C114.27 176.224 113.924 175.958 113.782 175.305L113.133 172.316C112.656 170.117 111.963 168.253 111.055 166.723C111.103 166.281 111.333 166.016 111.745 165.926ZM125.579 163.65C126.963 163.979 127.98 165.764 128.63 169.004C129.089 170.703 129.58 171.847 130.104 172.435L130.126 172.538C130.17 172.906 129.946 173.198 129.453 173.413C128.489 173.532 127.501 171.3 126.488 166.717L125.869 165.611L125.555 165.652C125.124 166.483 124.975 167.415 125.109 168.447C125.17 169.225 125.411 170.459 125.832 172.148C125.675 172.668 125.421 172.948 125.07 172.988C124.468 173.029 123.959 171.971 123.544 169.812C122.761 167.698 122.186 166.663 121.817 166.706L121.663 166.74C121.181 167.007 120.989 167.615 121.088 168.565L122.431 173.508L122.478 173.848C122.509 174.237 122.264 174.56 121.744 174.817C120.867 174.918 119.915 171.985 118.889 166.02C118.862 165.648 119.076 165.35 119.531 165.125C120.053 165.21 120.332 165.374 120.367 165.618L120.444 165.602L121.564 165.169C122.163 165.111 122.848 165.448 123.619 166.18L123.676 166.195C124.226 164.834 124.86 163.986 125.579 163.65ZM133.713 162.963L135.315 162.885L135.298 162.807C135.676 162.725 136.033 162.962 136.37 163.519L136.645 165.159L136.891 166.293C137.253 167.959 137.764 169.152 138.424 169.872C138.38 170.331 138.16 170.604 137.765 170.69C137.199 170.813 136.644 170.25 136.103 169L135.962 168.599L135.73 168.649C135.429 170.244 134.764 171.405 133.734 172.132L133.37 172.319C131.804 172.227 130.83 171.306 130.449 169.554L130.416 169.399C129.942 167.217 130.622 165.253 132.455 163.506L133.713 162.963ZM132.068 169.553C132.375 170.386 132.743 170.755 133.172 170.662L133.25 170.645C133.851 170.515 134.402 168.497 134.903 164.593L134.886 164.516L134.106 164.523L134.054 164.535C132.68 164.833 131.958 166.231 131.889 168.728L132.068 169.553ZM142.135 160.621C143.9 160.381 145.057 162.316 145.608 166.423L145.9 168.761C145.931 169.402 145.694 169.759 145.188 169.833C144.717 169.9 144.444 169.635 144.368 169.04L144.006 166.501C143.608 163.512 143.026 162.073 142.259 162.186C141.437 162.292 141.185 163.948 141.503 167.153L142.211 169.913C142.255 170.281 142.004 170.534 141.458 170.67C140.811 170.757 140.373 169.899 140.143 168.096L138.243 162.33C138.192 161.927 138.463 161.643 139.057 161.478C139.421 161.417 139.72 161.757 139.953 162.498L140.061 162.501C140.625 161.371 141.317 160.745 142.135 160.621ZM154.36 144.232C155.597 143.963 156.611 144.822 157.402 146.809L157.535 147.05L157.613 147.033C157.702 147.445 157.426 147.748 156.785 147.942C156.407 148.024 155.905 147.368 155.278 145.975L154.768 145.735L154.69 145.752C153.78 145.95 153.778 148.136 154.684 152.31L156.12 157.799L156.841 157.643C157.717 157.452 158.22 157.658 158.351 158.259C158.422 158.586 158.228 158.853 157.769 159.06L156.61 159.312L156.627 159.389C157.671 163.371 158.4 165.813 158.811 166.713C158.793 167.292 158.612 167.619 158.268 167.694C157.513 167.858 156.836 166.566 156.239 163.817L155.029 159.736L154.196 159.998L153.242 160.205C152.796 160.302 152.497 160.088 152.347 159.563C152.239 159.065 152.589 158.728 153.396 158.553L154.195 158.379L154.585 158.187L153.029 152.265C151.958 147.335 152.402 144.657 154.36 144.232ZM162.541 156.432C164.134 156.643 165.27 158.106 165.949 160.818L165.983 160.973C166.41 163.272 166.122 164.801 165.117 165.559L164.418 165.819C162.483 165.771 161.263 164.588 160.76 162.269L160.743 162.192C160.198 159.684 160.642 157.834 162.074 156.641L162.541 156.432ZM162.213 161.63L162.336 162.196C162.876 163.77 163.549 164.469 164.356 164.294C164.708 163.678 164.724 162.631 164.403 161.154L164.369 160.999C163.884 159.18 163.374 158.239 162.839 158.175C162.048 158.76 161.84 159.912 162.213 161.63ZM166.242 154.09C166.705 153.989 167.179 154.471 167.662 155.535L167.739 155.519C168.224 154.604 168.844 154.064 169.6 153.9C170.885 153.855 171.588 154.107 171.707 154.657C171.657 155.171 171.443 155.47 171.065 155.552L170.019 155.455L169.761 155.511C168.789 155.92 168.735 158.117 169.601 162.103L169.864 163.314C169.876 163.869 169.694 164.187 169.316 164.269C168.766 164.389 168.42 164.122 168.279 163.469L167.629 160.48C167.152 158.281 166.459 156.417 165.551 154.888C165.599 154.445 165.829 154.18 166.242 154.09ZM181.425 142.131C182.885 141.814 184.177 142.667 185.3 144.689L185.456 145.411C185.785 146.923 185.331 149.018 184.096 151.696L184.124 151.825C184.846 151.668 185.655 152.122 186.552 153.187L186.973 154.255C187.499 156.677 186.807 158.878 184.899 160.858C184.583 161.142 184.193 161.335 183.729 161.436C182.345 161.52 181.581 161.236 181.44 160.584C181.473 160.325 181.614 160.06 181.861 159.791L182.325 159.69C182.762 159.883 183.067 159.96 183.239 159.923L183.651 159.834C184.562 159.636 185.203 158.282 185.575 155.773L185.552 155.292L185.339 154.313C185.175 153.558 184.715 153.262 183.959 153.426C183.496 153.527 182.722 153.857 181.638 154.416C181.147 154.307 180.864 154.08 180.789 153.737C180.744 153.531 181.274 152.822 182.378 151.611C183.698 149.076 184.222 147.181 183.95 145.927L183.849 145.463C183.388 144.088 182.694 143.501 181.767 143.703L181.612 143.737C180.942 143.882 180.423 144.39 180.055 145.262L180.349 145.873C180.25 146.326 180.028 146.59 179.685 146.664C179.039 146.589 178.647 146.233 178.509 145.598C178.255 144.43 179.15 143.291 181.193 142.182L181.425 142.131ZM190.837 141.112C192.297 140.795 193.324 140.968 193.917 141.631C194.915 142.583 195.635 144.073 196.075 146.1L196.187 146.615C197.026 150.48 196.865 154.167 195.702 157.675C195.106 158.992 194.448 159.728 193.727 159.885L193.546 159.924C191.914 160.278 190.574 159.158 189.524 156.561L188.829 154.23L188.706 153.663C187.937 150.125 187.973 146.771 188.814 143.602C189.441 142.099 190.115 141.269 190.837 141.112ZM190.294 153.399L190.417 153.966C191.232 157.135 192.085 158.622 192.979 158.428L193.313 158.356C194.396 158.121 195.004 155.578 195.138 150.728C195.086 149.498 194.943 148.342 194.708 147.26L194.445 146.049C193.755 143.536 192.998 142.37 192.174 142.549L191.659 142.661L191.392 142.8L191.04 142.795C190.49 142.914 190.05 144.449 189.72 147.399C189.681 149.458 189.873 151.458 190.294 153.399ZM212.128 144.853C213.513 145.181 214.53 146.966 215.18 150.207C215.639 151.906 216.13 153.049 216.653 153.637L216.676 153.74C216.72 154.108 216.495 154.4 216.002 154.615C215.039 154.734 214.051 152.503 213.037 147.92L212.419 146.813L212.104 146.854C211.673 147.686 211.525 148.617 211.659 149.649C211.72 150.428 211.961 151.661 212.382 153.351C212.225 153.871 211.971 154.151 211.62 154.191C211.017 154.232 210.509 153.173 210.094 151.015C209.311 148.9 208.735 147.865 208.367 147.909L208.212 147.943C207.731 148.209 207.539 148.817 207.637 149.767L208.981 154.71L209.028 155.051C209.058 155.44 208.814 155.763 208.294 156.019C207.416 156.12 206.465 153.188 205.439 147.223C205.412 146.851 205.626 146.553 206.081 146.328C206.603 146.412 206.881 146.577 206.916 146.821L206.994 146.804L208.114 146.372C208.713 146.314 209.398 146.651 210.168 147.383L210.226 147.397C210.775 146.037 211.41 145.189 212.128 144.853ZM216.615 140.29C217.061 140.193 217.399 140.425 217.629 140.987C217.689 141.261 217.558 141.569 217.236 141.908L216.978 141.964C216.497 142.069 216.193 141.829 216.067 141.245C216.088 140.683 216.271 140.364 216.615 140.29ZM217.55 143.729C218.153 143.688 218.505 144.52 218.605 146.225C218.694 147.627 219.154 149.91 219.985 153.076C219.836 153.63 219.547 153.917 219.12 153.938C218.624 153.974 218.242 153.166 217.973 151.516C217.32 148.672 216.947 146.252 216.856 144.258C216.834 143.992 217.066 143.816 217.55 143.729ZM224.511 142.73C226.275 142.491 227.433 144.425 227.983 148.532L228.275 150.87C228.306 151.511 228.069 151.868 227.564 151.942C227.092 152.009 226.819 151.744 226.744 151.149L226.381 148.61C225.984 145.621 225.402 144.182 224.635 144.295C223.812 144.402 223.56 146.057 223.879 149.262L224.586 152.022C224.63 152.39 224.379 152.643 223.833 152.779C223.186 152.866 222.748 152.008 222.518 150.205L220.619 144.439C220.567 144.036 220.838 143.752 221.432 143.587C221.796 143.526 222.095 143.866 222.328 144.607L222.437 144.61C223.001 143.481 223.692 142.854 224.511 142.73ZM233.712 141.244C234.262 141.125 234.668 141.666 234.929 142.869C235.227 144.243 235.684 145.889 236.298 147.806C236.9 147.927 237.238 148.159 237.313 148.503L237.335 148.606C237.428 149.035 237.194 149.365 236.632 149.595C236.254 149.677 235.85 149.387 235.418 148.725C234.902 149.827 234.3 150.452 233.613 150.601C232.073 150.882 230.928 150.33 230.178 148.946C229.665 147.331 229.207 145.595 228.804 143.74L228.698 143.251C228.567 142.649 228.777 142.289 229.327 142.17C229.722 142.084 230.033 142.358 230.261 142.992L230.35 143.404C230.895 147.567 231.859 149.399 233.244 148.901C234.051 148.06 234.359 147.121 234.17 146.082L234.013 145.361L233.195 143.083L233.139 142.826C232.937 141.898 233.128 141.371 233.712 141.244ZM235.989 126.26C236.539 126.141 237.14 127.746 237.791 131.076C238.456 134.386 238.937 136.728 239.236 138.102L239.287 138.091L240.783 137.523C241.296 137.483 241.599 137.678 241.692 138.108C241.819 138.692 241.342 139.101 240.259 139.336L239.64 139.714L241.747 148.295C241.805 148.894 241.602 149.244 241.138 149.345C240.588 149.464 240.226 149.12 240.05 148.313L239.608 146.277L238.309 140.543L238.15 140.307L237.033 140.631C236.53 140.632 236.231 140.418 236.138 139.989C236.022 139.456 236.557 139.061 237.742 138.804L237.72 138.701C237.242 136.502 236.443 132.655 235.322 127.161C235.228 126.731 235.451 126.431 235.989 126.26ZM245.493 138.092C246.455 137.883 247.297 138.609 248.017 140.269C247.992 142.307 247.284 143.477 245.892 143.779L245.789 143.802L245.806 143.879C246.42 145.382 247.32 146.005 248.505 145.748C249.416 145.55 249.985 144.608 250.212 142.922L250.729 142.567C251.106 142.485 251.41 142.725 251.64 143.286C251.872 144.351 251.257 145.537 249.796 146.844L248.609 147.344C247.132 147.665 245.795 146.849 244.597 144.897C244.208 144.1 243.954 143.427 243.835 142.877L243.762 142.542C243.381 140.79 243.835 139.36 245.124 138.253L245.493 138.092ZM245.245 141.545L245.256 141.597L245.952 142.066C246.21 142.01 246.374 141.606 246.444 140.853L246.354 140.441C246.153 139.927 245.983 139.685 245.846 139.715L245.691 139.749C245.434 139.805 245.285 140.403 245.245 141.545ZM254.563 135.501C255.457 135.307 256.08 135.568 256.433 136.282C256.511 136.643 256.319 136.919 255.857 137.109L255.625 137.159C255.368 137.053 255.154 137.019 254.982 137.056L254.75 137.107C253.721 137.834 253.311 138.678 253.52 139.64L253.57 139.872C253.779 140.42 254.107 140.646 254.553 140.549L254.785 140.499L256.49 139.778C257.389 139.69 257.92 140.025 258.084 140.781C258.327 141.897 257.908 143.238 256.827 144.804C256.296 145.423 255.704 145.804 255.051 145.945C253.81 145.945 253.111 145.584 252.954 144.863C253.033 144.396 253.278 144.118 253.69 144.028L254.612 144.422L255.024 144.332C256.174 143.579 256.631 142.661 256.396 141.579L256.271 141.498C255.875 141.746 255.411 141.928 254.878 142.044C253.607 142.32 252.646 141.665 251.996 140.079C251.671 138.585 252.24 137.184 253.701 135.878L254.563 135.501Z" fill="black"/>
<path d="M109.481 213.784C111.057 213.586 112.291 214.793 113.182 217.405L113.417 218.487C113.677 220.679 113.063 223.07 111.575 225.66C112.128 226.385 113.473 228.809 115.61 232.932L118.849 237.409C118.726 237.922 118.479 238.191 118.107 238.218C117.639 238.302 116.629 237.127 115.075 234.694C114.118 233.517 112.849 231.238 111.27 227.858C110.929 227.284 110.697 227.002 110.573 227.011L109.043 228.288C109.894 232.042 110.819 235.556 111.818 238.828C111.843 239.111 111.682 239.406 111.336 239.716L111.073 239.746C110.584 239.816 110.228 239.336 110.004 238.305C107.5 229.009 106.009 222.435 105.531 218.581C105.121 218.347 104.899 218.071 104.866 217.754C104.857 217.63 104.996 217.357 105.282 216.936C105.181 216.22 105.412 215.837 105.977 215.786L106.402 215.883C107.629 214.573 108.655 213.873 109.481 213.784ZM106.949 217.653C107.577 221.456 108.153 224.398 108.677 226.478L108.914 226.454C110.426 225.298 111.423 223.139 111.905 219.976L111.845 218.829L111.82 218.591C111.636 216.995 111.028 215.894 109.997 215.291L109.579 215.355C108.984 215.43 108.107 216.196 106.949 217.653ZM120.637 227.631C121.599 227.422 122.44 228.148 123.161 229.808C123.136 231.846 122.427 233.016 121.036 233.319L120.933 233.341L120.95 233.418C121.564 234.922 122.464 235.545 123.649 235.287C124.56 235.09 125.128 234.148 125.356 232.461L125.872 232.106C126.25 232.024 126.554 232.264 126.784 232.826C127.015 233.891 126.4 235.077 124.939 236.383L123.753 236.884C122.276 237.205 120.938 236.389 119.741 234.436C119.352 233.639 119.098 232.966 118.978 232.416L118.906 232.081C118.525 230.329 118.979 228.9 120.267 227.792L120.637 227.631ZM120.389 231.085L120.4 231.136L121.096 231.606C121.353 231.55 121.517 231.145 121.588 230.393L121.498 229.98C121.297 229.467 121.127 229.225 120.99 229.254L120.835 229.288C120.577 229.344 120.429 229.943 120.389 231.085ZM126.722 225.581C127.203 225.477 127.726 226.19 128.293 227.722C129.605 229.704 130.488 230.87 130.942 231.221L131.019 231.204C130.593 226.926 130.733 224.71 131.437 224.557L131.54 224.535C132.045 224.623 132.336 224.847 132.415 225.208C132.168 226.143 132.316 229.142 132.858 234.205C132.568 234.61 132.354 234.827 132.217 234.857C131.804 234.946 131.002 234.068 129.81 232.223C127.874 230.017 126.632 228.11 126.085 226.502C126.022 226.21 126.234 225.903 126.722 225.581ZM134.118 220.629C134.565 220.532 134.903 220.764 135.133 221.326C135.193 221.601 135.062 221.908 134.74 222.248L134.482 222.304C134.001 222.408 133.697 222.168 133.57 221.584C133.592 221.022 133.775 220.704 134.118 220.629ZM135.054 224.068C135.657 224.027 136.008 224.859 136.109 226.564C136.198 227.966 136.658 230.25 137.489 233.415C137.339 233.969 137.051 234.256 136.624 234.277C136.128 234.313 135.746 233.506 135.477 231.855C134.824 229.011 134.451 226.592 134.36 224.597C134.338 224.332 134.569 224.156 135.054 224.068ZM139.988 223.428C140.95 223.219 141.791 223.945 142.511 225.606C142.486 227.644 141.778 228.814 140.387 229.116L140.284 229.138L140.3 229.216C140.915 230.719 141.814 231.342 143 231.085C143.91 230.887 144.479 229.945 144.706 228.259L145.223 227.904C145.601 227.822 145.905 228.061 146.135 228.623C146.366 229.688 145.751 230.874 144.29 232.181L143.104 232.681C141.626 233.002 140.289 232.186 139.091 230.234C138.702 229.437 138.448 228.763 138.329 228.214L138.256 227.879C137.876 226.127 138.33 224.697 139.618 223.59L139.988 223.428ZM139.74 226.882L139.751 226.934L140.446 227.403C140.704 227.347 140.868 226.943 140.938 226.19L140.849 225.778C140.647 225.264 140.478 225.022 140.34 225.052L140.186 225.085C139.928 225.141 139.779 225.74 139.74 226.882ZM146.316 221.137C146.901 221.01 147.437 221.783 147.927 223.458C149.019 225.505 149.617 226.518 149.72 226.495L149.797 226.478C149.497 224.349 149.535 223.244 149.913 223.161L150.248 223.089C150.729 222.984 151.764 223.857 153.353 225.706L153.43 225.689L153.413 225.612C152.721 221.679 152.761 219.629 153.534 219.461L153.689 219.427C154.21 219.422 154.505 219.583 154.576 219.909C154.388 221.443 154.497 223.146 154.903 225.019L155.852 228.887C155.822 229.415 155.593 229.726 155.164 229.819C154.665 229.927 153.411 228.581 151.399 225.78L151.245 225.813C151.735 229.394 151.584 231.271 150.794 231.442C150.262 231.558 149.747 230.761 149.25 229.053C147.615 226.08 146.454 223.76 145.768 222.092C145.69 221.731 145.873 221.413 146.316 221.137ZM164.211 204.515C165.448 204.246 166.462 205.105 167.253 207.092L167.386 207.333L167.464 207.316C167.553 207.728 167.277 208.031 166.636 208.224C166.258 208.306 165.756 207.651 165.129 206.258L164.618 206.018L164.541 206.035C163.631 206.233 163.629 208.419 164.535 212.593L165.97 218.082L166.692 217.925C167.568 217.735 168.071 217.941 168.202 218.542C168.273 218.868 168.079 219.135 167.62 219.343L166.461 219.595L166.478 219.672C167.522 223.654 168.25 226.095 168.662 226.995C168.644 227.575 168.463 227.902 168.119 227.976C167.364 228.141 166.687 226.848 166.09 224.1L164.88 220.019L164.047 220.281L163.093 220.488C162.647 220.585 162.348 220.371 162.198 219.846C162.09 219.348 162.44 219.011 163.247 218.835L164.046 218.662L164.436 218.469L162.88 212.548C161.809 207.618 162.253 204.94 164.211 204.515ZM172.392 216.714C173.985 216.926 175.121 218.388 175.8 221.101L175.833 221.255C176.261 223.555 175.972 225.084 174.968 225.841L174.269 226.101C172.334 226.054 171.114 224.871 170.611 222.552L170.594 222.474C170.049 219.966 170.493 218.116 171.925 216.924L172.392 216.714ZM172.064 221.912L172.187 222.479C172.727 224.053 173.4 224.752 174.207 224.577C174.559 223.961 174.575 222.914 174.254 221.437L174.22 221.282C173.735 219.463 173.225 218.521 172.69 218.458C171.899 219.043 171.691 220.194 172.064 221.912ZM176.092 214.373C176.556 214.272 177.03 214.754 177.513 215.818L177.59 215.801C178.075 214.887 178.695 214.347 179.451 214.183C180.736 214.138 181.439 214.39 181.558 214.94C181.508 215.454 181.294 215.752 180.916 215.834L179.87 215.738L179.612 215.794C178.64 216.203 178.586 218.4 179.452 222.385L179.715 223.596C179.727 224.151 179.545 224.47 179.167 224.552C178.617 224.671 178.271 224.404 178.129 223.752L177.48 220.763C177.003 218.564 176.31 216.7 175.402 215.17C175.45 214.728 175.68 214.462 176.092 214.373ZM187.143 198.913C187.374 198.899 187.697 199.063 188.113 199.404L188.869 199.159C190.948 198.708 192.704 199.586 194.136 201.793C194.524 202.5 194.785 203.163 194.919 203.781L194.969 204.013L195.038 204.079L195.009 204.193L195.076 204.503C195.408 206.031 195.223 207.664 194.52 209.399C196.435 210.099 197.611 211.453 198.047 213.463L198.17 214.03C198.636 216.177 198.312 218.37 197.198 220.609C196.669 221.407 196.036 221.886 195.297 222.047L194.062 222.072L193.984 222.089L193.735 222.305L193.425 222.372C192.962 222.473 192.542 221.989 192.165 220.919C191.262 218.831 190.514 216.421 189.921 213.69L189.602 212.221L189.019 211.403L189.008 211.352L189.238 210.546L188.757 208.33C187.981 204.757 187.225 201.9 186.49 199.757C186.513 199.284 186.731 199.003 187.143 198.913ZM188.521 200.908C189.194 203.262 189.835 205.839 190.443 208.639L190.818 210.365L191.488 210.22C192.827 209.929 193.559 208.493 193.682 205.912L193.546 204.916L193.351 204.014C192.929 202.073 191.883 200.942 190.212 200.621L189.194 200.654L188.885 200.721L188.521 200.908ZM191.38 211.835L191.148 211.885L191.45 213.277C192.495 218.087 193.343 220.42 193.996 220.279C194.262 220.509 194.532 220.594 194.807 220.534L195.142 220.462C196.173 220.238 196.717 218.563 196.776 215.439L196.535 213.953C196.109 211.995 195.219 211.001 193.863 210.972L193.168 211.123L191.38 211.835ZM204.321 210.05C204.871 209.93 205.276 210.472 205.537 211.674C205.836 213.048 206.292 214.694 206.906 216.611C207.508 216.732 207.847 216.965 207.921 217.308L207.944 217.411C208.037 217.841 207.803 218.171 207.241 218.4C206.863 218.483 206.458 218.193 206.027 217.531C205.511 218.632 204.909 219.258 204.222 219.407C202.682 219.687 201.537 219.136 200.786 217.752C200.274 216.136 199.816 214.401 199.413 212.546L199.306 212.056C199.176 211.455 199.385 211.095 199.935 210.975C200.33 210.889 200.642 211.164 200.869 211.798L200.959 212.21C201.503 216.373 202.468 218.205 203.852 217.706C204.659 216.866 204.968 215.926 204.778 214.888L204.622 214.167L203.803 211.889L203.747 211.631C203.546 210.704 203.737 210.176 204.321 210.05ZM210.279 207.541C211.172 207.347 211.795 207.608 212.148 208.323C212.227 208.683 212.035 208.959 211.572 209.149L211.341 209.2C211.084 209.094 210.869 209.059 210.698 209.096L210.466 209.147C209.436 209.874 209.026 210.719 209.235 211.681L209.286 211.912C209.495 212.461 209.822 212.686 210.269 212.589L210.501 212.539L212.206 211.818C213.104 211.731 213.636 212.065 213.8 212.821C214.042 213.937 213.623 215.278 212.542 216.844C212.011 217.463 211.419 217.844 210.766 217.986C209.525 217.985 208.826 217.624 208.67 216.903C208.748 216.436 208.993 216.158 209.406 216.069L210.328 216.462L210.74 216.372C211.889 215.619 212.347 214.701 212.112 213.619L211.986 213.538C211.59 213.786 211.126 213.968 210.594 214.084C209.322 214.36 208.362 213.705 207.712 212.119C207.387 210.625 207.955 209.224 209.416 207.918L210.279 207.541ZM214.458 203.18C214.905 203.083 215.243 203.315 215.473 203.877C215.533 204.152 215.402 204.459 215.08 204.799L214.822 204.855C214.341 204.959 214.037 204.72 213.91 204.136C213.932 203.573 214.115 203.255 214.458 203.18ZM215.394 206.619C215.997 206.578 216.348 207.41 216.449 209.115C216.537 210.517 216.997 212.801 217.829 215.966C217.679 216.52 217.391 216.808 216.964 216.828C216.468 216.864 216.086 216.057 215.817 214.406C215.163 211.562 214.791 209.143 214.699 207.148C214.678 206.883 214.909 206.707 215.394 206.619ZM222.354 205.62C224.119 205.381 225.277 207.315 225.827 211.423L226.119 213.761C226.15 214.402 225.913 214.759 225.407 214.833C224.936 214.899 224.663 214.635 224.588 214.039L224.225 211.501C223.828 208.511 223.245 207.073 222.478 207.185C221.656 207.292 221.404 208.948 221.722 212.152L222.43 214.913C222.474 215.281 222.223 215.533 221.677 215.67C221.03 215.756 220.592 214.898 220.362 213.095L218.462 207.329C218.411 206.927 218.682 206.643 219.276 206.478C219.64 206.417 219.939 206.757 220.172 207.497L220.28 207.501C220.844 206.371 221.536 205.744 222.354 205.62ZM228.573 204.189C229.535 203.98 230.376 204.706 231.096 206.366C231.071 208.404 230.363 209.574 228.972 209.876L228.869 209.899L228.886 209.976C229.5 211.479 230.4 212.102 231.585 211.845C232.495 211.647 233.064 210.705 233.292 209.019L233.808 208.664C234.186 208.582 234.49 208.822 234.72 209.383C234.951 210.448 234.336 211.634 232.875 212.941L231.689 213.441C230.212 213.762 228.874 212.946 227.677 210.994C227.288 210.197 227.033 209.524 226.914 208.974L226.841 208.639C226.461 206.887 226.915 205.457 228.203 204.35L228.573 204.189ZM228.325 207.642L228.336 207.694L229.031 208.163C229.289 208.108 229.453 207.703 229.524 206.95L229.434 206.538C229.232 206.024 229.063 205.782 228.926 205.812L228.771 205.846C228.513 205.902 228.365 206.501 228.325 207.642ZM237.643 201.598C238.536 201.404 239.159 201.665 239.512 202.38C239.591 202.74 239.399 203.016 238.936 203.206L238.705 203.256C238.448 203.15 238.233 203.116 238.062 203.153L237.83 203.204C236.8 203.931 236.39 204.775 236.599 205.737L236.65 205.969C236.859 206.518 237.186 206.743 237.633 206.646L237.865 206.596L239.57 205.875C240.468 205.787 241 206.122 241.164 206.878C241.406 207.994 240.987 209.335 239.906 210.901C239.375 211.52 238.783 211.901 238.13 212.042C236.889 212.042 236.19 211.681 236.034 210.96C236.112 210.493 236.357 210.215 236.77 210.125L237.692 210.519L238.104 210.429C239.253 209.676 239.711 208.758 239.476 207.676L239.35 207.595C238.954 207.843 238.49 208.025 237.958 208.141C236.686 208.417 235.726 207.762 235.076 206.176C234.751 204.682 235.319 203.281 236.78 201.975L237.643 201.598ZM244.342 200.143C245.235 199.949 245.859 200.21 246.212 200.925C246.29 201.285 246.098 201.561 245.636 201.751L245.404 201.801C245.147 201.695 244.933 201.661 244.761 201.698L244.529 201.749C243.5 202.476 243.09 203.32 243.298 204.282L243.349 204.514C243.558 205.063 243.886 205.288 244.332 205.191L244.564 205.141L246.269 204.42C247.168 204.332 247.699 204.667 247.863 205.423C248.106 206.539 247.686 207.88 246.605 209.446C246.074 210.065 245.482 210.446 244.83 210.587C243.588 210.587 242.89 210.226 242.733 209.505C242.811 209.038 243.057 208.76 243.469 208.67L244.391 209.064L244.803 208.974C245.953 208.221 246.41 207.303 246.175 206.221L246.049 206.14C245.654 206.388 245.189 206.57 244.657 206.686C243.386 206.962 242.425 206.307 241.775 204.721C241.45 203.227 242.018 201.826 243.48 200.52L244.342 200.143ZM258.682 182.189C258.94 182.133 259.243 182.328 259.592 182.774L259.599 183.177C263.238 192.73 265.92 200.026 267.644 205.066C267.577 205.584 267.363 205.882 267.002 205.961C266.401 206.091 265.761 204.881 265.081 202.331L264.355 200.357L262.955 200.742C262.062 200.936 260.689 201.117 258.837 201.285C258.509 205.907 258.114 208.269 257.65 208.37L257.599 208.381C257.015 208.346 256.681 208.13 256.595 207.735C257.248 204.032 257.495 197.88 257.336 189.281C257.488 186.585 257.686 184.393 257.931 182.703C258.123 182.427 258.373 182.256 258.682 182.189ZM258.913 199.65C259.906 199.668 260.927 199.563 261.975 199.336L263.366 199.034C263.555 198.992 263.702 198.88 263.805 198.695L259.205 186.581L259.153 186.593C258.925 187.2 258.834 189.18 258.879 192.534L258.913 199.65ZM269.07 182.064C269.277 182.019 269.533 182.126 269.841 182.382L270.261 184.315C271.499 190.018 273.304 196.093 275.676 202.539L276.586 204.122C276.559 204.578 276.34 204.85 275.927 204.94C275.395 205.055 274.877 204.493 274.374 203.253L274.194 203.293C273.685 204.015 273.121 204.443 272.503 204.577C271.094 204.883 269.849 204.2 268.766 202.529C268.412 201.976 268.146 201.287 267.967 200.463C267.541 198.504 267.899 197.006 269.041 195.966L269.596 195.792L269.674 195.775C270.189 195.663 270.86 195.769 271.686 196.093L271.789 196.071L271.772 195.994C270.431 191.644 269.455 188.061 268.843 185.243L268.469 183.517C268.286 182.675 268.486 182.191 269.07 182.064ZM269.496 200.05L269.625 200.642C269.901 201.913 270.564 202.732 271.615 203.097L272.167 203.031C272.992 202.852 273.229 201.955 272.878 200.34L272.721 199.619C272.404 198.159 271.449 197.404 269.855 197.354C269.332 197.846 269.212 198.744 269.496 200.05ZM282.891 191.906C284.276 192.235 285.293 194.02 285.943 197.26C286.402 198.959 286.893 200.103 287.416 200.691L287.439 200.794C287.483 201.162 287.258 201.453 286.765 201.668C285.802 201.788 284.813 199.556 283.8 194.973L283.182 193.866L282.867 193.908C282.436 194.739 282.288 195.671 282.422 196.703C282.483 197.481 282.724 198.715 283.145 200.404C282.988 200.924 282.734 201.204 282.383 201.244C281.78 201.285 281.271 200.226 280.857 198.068C280.074 195.954 279.498 194.918 279.13 194.962L278.975 194.996C278.493 195.262 278.302 195.871 278.4 196.821L279.744 201.763L279.791 202.104C279.821 202.493 279.576 202.816 279.057 203.073C278.179 203.173 277.227 200.241 276.202 194.276C276.175 193.904 276.389 193.606 276.844 193.381C277.366 193.466 277.644 193.63 277.679 193.874L277.757 193.857L278.877 193.425C279.476 193.367 280.161 193.704 280.931 194.436L280.988 194.451C281.538 193.09 282.173 192.242 282.891 191.906ZM287.377 187.343C287.824 187.246 288.162 187.478 288.392 188.04C288.452 188.315 288.321 188.622 287.999 188.962L287.741 189.018C287.26 189.122 286.956 188.882 286.829 188.298C286.851 187.736 287.034 187.418 287.377 187.343ZM288.313 190.782C288.916 190.741 289.267 191.573 289.368 193.278C289.457 194.68 289.917 196.964 290.748 200.129C290.598 200.683 290.31 200.97 289.883 200.991C289.387 201.027 289.005 200.22 288.736 198.569C288.083 195.725 287.71 193.306 287.619 191.311C287.597 191.046 287.829 190.87 288.313 190.782ZM295.273 189.783C297.038 189.544 298.196 191.478 298.746 195.586L299.038 197.924C299.069 198.564 298.832 198.922 298.327 198.996C297.855 199.062 297.582 198.797 297.507 198.202L297.144 195.664C296.747 192.674 296.164 191.236 295.397 191.348C294.575 191.455 294.323 193.111 294.641 196.315L295.349 199.076C295.393 199.444 295.142 199.696 294.596 199.833C293.949 199.919 293.511 199.061 293.281 197.258L291.381 191.492C291.33 191.089 291.601 190.806 292.195 190.641C292.559 190.58 292.858 190.919 293.091 191.66L293.199 191.664C293.764 190.534 294.455 189.907 295.273 189.783Z" fill="black"/>
<path d="M117.454 274.609C117.849 274.524 118.303 275.163 118.815 276.526C121.77 279.698 123.33 281.662 123.494 282.417L124.698 284.854L124.775 284.837C124.622 280.572 124.77 277.482 125.217 275.568C125.558 274.072 125.926 273.282 126.321 273.196C126.888 273.073 127.401 273.735 127.859 275.183C128.537 276.816 129.184 279.05 129.8 281.884L131.193 288.3C132.305 292.754 133.092 294.93 133.556 294.829C133.92 294.93 134.142 295.17 134.225 295.548C134.43 296.492 134.324 297.163 133.906 297.559L133.416 297.666C132.413 297.434 131.036 293.992 129.285 287.339L128.755 284.405L128.246 282.06C127.421 278.426 126.888 276.635 126.648 276.687L126.57 276.704C126.246 278.357 126.155 281.21 126.297 285.262C126.588 287.592 126.484 288.81 125.985 288.919L125.599 289.003C125.084 289.115 123.845 286.973 121.883 282.578L120.317 280.463L120.086 280.514L121.778 287.188L124.185 298.645C124.236 299.21 124.03 299.543 123.566 299.643C123.062 299.645 122.773 299.474 122.699 299.13L120.135 286.952C119.307 283.138 118.166 279.338 116.715 275.552C116.629 275.157 116.875 274.843 117.454 274.609ZM136.261 286.66C137.223 286.451 138.064 287.177 138.784 288.837C138.759 290.875 138.051 292.045 136.659 292.348L136.556 292.37L136.573 292.447C137.187 293.951 138.087 294.574 139.273 294.316C140.183 294.119 140.752 293.177 140.979 291.49L141.496 291.135C141.874 291.053 142.178 291.293 142.407 291.855C142.639 292.92 142.024 294.105 140.563 295.412L139.376 295.913C137.899 296.233 136.562 295.418 135.364 293.465C134.975 292.668 134.721 291.995 134.602 291.445L134.529 291.11C134.148 289.358 134.602 287.929 135.891 286.821L136.261 286.66ZM136.012 290.114L136.024 290.165L136.719 290.635C136.977 290.579 137.141 290.174 137.211 289.422L137.122 289.009C136.92 288.495 136.751 288.253 136.613 288.283L136.459 288.317C136.201 288.373 136.052 288.972 136.012 290.114ZM144.557 284.858C145.519 284.649 146.36 285.375 147.081 287.035C147.056 289.073 146.348 290.243 144.956 290.546L144.853 290.568L144.87 290.645C145.484 292.149 146.384 292.772 147.569 292.514C148.48 292.317 149.049 291.375 149.276 289.688L149.792 289.333C150.17 289.251 150.474 289.491 150.704 290.053C150.936 291.118 150.321 292.304 148.86 293.61L147.673 294.111C146.196 294.432 144.859 293.616 143.661 291.663C143.272 290.866 143.018 290.193 142.899 289.643L142.826 289.308C142.445 287.556 142.899 286.127 144.188 285.019L144.557 284.858ZM144.309 288.312L144.32 288.363L145.016 288.833C145.274 288.777 145.438 288.372 145.508 287.62L145.418 287.207C145.217 286.694 145.047 286.452 144.91 286.481L144.755 286.515C144.498 286.571 144.349 287.17 144.309 288.312ZM149.946 269.792C150.496 269.673 151.097 271.278 151.748 274.608C152.413 277.917 152.894 280.259 153.193 281.633L153.244 281.622L154.74 281.055C155.253 281.015 155.556 281.21 155.649 281.64C155.776 282.224 155.299 282.633 154.216 282.868L153.597 283.246L155.703 291.827C155.762 292.426 155.559 292.776 155.095 292.877C154.545 292.996 154.183 292.652 154.007 291.845L153.565 289.809L152.266 284.074L152.107 283.839L150.99 284.163C150.487 284.164 150.188 283.95 150.095 283.52C149.979 282.988 150.514 282.593 151.699 282.336L151.677 282.232C151.199 280.034 150.4 276.187 149.279 270.692C149.185 270.263 149.408 269.963 149.946 269.792ZM157.704 277.929C158.15 277.832 158.488 278.064 158.718 278.626C158.778 278.9 158.647 279.208 158.325 279.547L158.067 279.603C157.586 279.708 157.282 279.468 157.156 278.884C157.177 278.322 157.36 278.003 157.704 277.929ZM158.639 281.368C159.242 281.327 159.594 282.159 159.694 283.864C159.783 285.266 160.243 287.549 161.074 290.715C160.925 291.269 160.636 291.556 160.209 291.577C159.713 291.613 159.331 290.805 159.062 289.155C158.409 286.311 158.036 283.891 157.945 281.897C157.923 281.631 158.155 281.455 158.639 281.368ZM165.6 280.369C167.364 280.13 168.522 282.064 169.072 286.171L169.364 288.509C169.396 289.15 169.158 289.507 168.653 289.581C168.181 289.648 167.908 289.383 167.833 288.788L167.47 286.249C167.073 283.26 166.491 281.821 165.724 281.934C164.901 282.041 164.649 283.696 164.968 286.901L165.675 289.661C165.719 290.029 165.468 290.282 164.922 290.418C164.275 290.505 163.837 289.647 163.608 287.844L161.708 282.078C161.656 281.675 161.927 281.391 162.521 281.226C162.886 281.165 163.184 281.505 163.417 282.246L163.526 282.249C164.09 281.12 164.781 280.493 165.6 280.369ZM174.641 278.27C175.294 278.128 175.818 278.968 176.214 280.789C176.533 281.763 177.079 284.028 177.851 287.583C178.803 291.964 179.252 295.976 179.198 299.622C178.794 301.076 178.008 301.931 176.84 302.184C175.277 302.524 173.375 301.966 171.134 300.51L170.896 300.157C170.896 299.581 171.112 299.246 171.541 299.153C171.696 299.119 172.202 299.378 173.059 299.93C174.514 300.585 175.586 300.838 176.273 300.689L176.762 300.582C177.827 300.351 177.981 298.078 177.224 293.764C177.043 291.77 176.715 289.683 176.242 287.501L176.046 286.599C175.324 287.17 174.74 287.504 174.293 287.601C172.885 287.907 171.706 287.281 170.756 285.725C170.381 285.158 170.119 284.532 169.97 283.845C169.556 281.938 170.055 280.427 171.468 279.31L172.527 278.972C172.923 278.886 173.346 278.929 173.797 279.101L173.977 279.062C174.214 278.579 174.435 278.315 174.641 278.27ZM172.007 280.677C171.451 281.428 171.307 282.421 171.575 283.658C171.919 285.238 172.635 286.054 173.726 286.105L174.061 286.032C175.006 285.827 175.29 284.857 174.913 283.122C174.365 281.262 173.705 280.416 172.932 280.584L172.007 280.677ZM184.176 275.336C184.76 275.209 185.297 275.983 185.787 277.657C186.879 279.705 187.477 280.717 187.58 280.695L187.657 280.678C187.356 278.549 187.395 277.443 187.773 277.361L188.108 277.288C188.589 277.184 189.624 278.056 191.213 279.906L191.29 279.889L191.273 279.812C190.581 275.879 190.621 273.828 191.394 273.66L191.549 273.627C192.069 273.622 192.365 273.782 192.436 274.109C192.248 275.643 192.357 277.346 192.763 279.218L193.711 283.086C193.682 283.614 193.453 283.925 193.023 284.018C192.525 284.127 191.27 282.78 189.259 279.979L189.104 280.013C189.594 283.594 189.444 285.47 188.654 285.642C188.122 285.757 187.607 284.961 187.11 283.252C185.475 280.279 184.314 277.959 183.628 276.291C183.55 275.931 183.733 275.612 184.176 275.336ZM194.318 269.976C194.764 269.879 195.103 270.112 195.333 270.673C195.392 270.948 195.261 271.256 194.939 271.595L194.681 271.651C194.201 271.756 193.897 271.516 193.77 270.932C193.792 270.37 193.974 270.051 194.318 269.976ZM195.254 273.416C195.856 273.375 196.208 274.207 196.308 275.912C196.397 277.314 196.857 279.597 197.688 282.762C197.539 283.316 197.25 283.604 196.823 283.625C196.327 283.661 195.945 282.853 195.677 281.203C195.023 278.359 194.65 275.939 194.559 273.944C194.537 273.679 194.769 273.503 195.254 273.416ZM197.279 259.512C197.829 259.392 198.43 260.998 199.081 264.328C199.746 267.637 200.227 269.979 200.526 271.353L200.577 271.342L202.073 270.774C202.586 270.735 202.889 270.93 202.982 271.359C203.109 271.943 202.632 272.353 201.549 272.588L200.93 272.965L203.037 281.547C203.095 282.146 202.892 282.496 202.428 282.596C201.878 282.716 201.516 282.372 201.34 281.564L200.898 279.529L199.599 273.794L199.44 273.559L198.323 273.882C197.82 273.884 197.521 273.67 197.428 273.24C197.312 272.708 197.847 272.313 199.032 272.055L199.01 271.952C198.532 269.754 197.733 265.907 196.612 260.412C196.518 259.983 196.741 259.683 197.279 259.512ZM201.973 255.902C202.351 255.82 202.639 256.072 202.839 256.659L203.152 258.101C203.909 261.589 204.891 266.232 206.097 272.032C206.594 271.259 207.118 270.812 207.667 270.693C209.059 270.39 210.289 271.706 211.358 274.64C211.898 276.879 212.45 278.801 213.015 280.405C213.078 280.697 212.861 281.023 212.364 281.383C211.716 281.218 211.355 280.963 211.281 280.62L211.367 280.52L211.344 280.417C209.96 275.285 209.122 272.751 208.83 272.815C208.534 272.447 208.293 272.248 208.106 272.216L207.849 272.272C207.154 273.215 206.924 274.227 207.159 275.309L208.414 280.838C208.316 281.381 208.104 281.687 207.777 281.758C207.21 281.881 206.678 281.17 206.18 279.623C206.073 278.549 205.937 277.634 205.773 276.878L205.756 276.801L205.688 276.735L205.723 276.646L205.583 276.002L203.18 264.193C202.556 262.314 202.042 260.447 201.64 258.592L201.304 257.046C201.2 256.403 201.423 256.022 201.973 255.902ZM218.228 254.962C218.777 254.843 219.378 256.448 220.029 259.778C220.694 263.088 221.176 265.429 221.474 266.804L221.525 266.792L223.021 266.225C223.534 266.185 223.837 266.38 223.931 266.81C224.057 267.394 223.58 267.803 222.498 268.038L221.878 268.416L223.985 276.997C224.043 277.596 223.84 277.946 223.376 278.047C222.826 278.166 222.464 277.822 222.289 277.015L221.847 274.979L220.547 269.244L220.388 269.009L219.271 269.333C218.768 269.334 218.469 269.12 218.376 268.691C218.26 268.158 218.795 267.763 219.981 267.506L219.958 267.403C219.481 265.204 218.681 261.357 217.56 255.863C217.466 255.433 217.689 255.133 218.228 254.962ZM227.732 266.794C228.694 266.585 229.535 267.31 230.255 268.971C230.23 271.009 229.522 272.179 228.13 272.481L228.027 272.504L228.044 272.581C228.658 274.084 229.558 274.707 230.744 274.45C231.654 274.252 232.223 273.31 232.45 271.624L232.967 271.269C233.345 271.187 233.649 271.427 233.878 271.988C234.11 273.053 233.495 274.239 232.034 275.546L230.847 276.046C229.37 276.367 228.033 275.551 226.835 273.599C226.446 272.802 226.192 272.129 226.073 271.579L226 271.244C225.619 269.492 226.073 268.062 227.362 266.955L227.732 266.794ZM227.483 270.247L227.495 270.299L228.19 270.768C228.448 270.712 228.612 270.308 228.682 269.555L228.593 269.143C228.391 268.629 228.222 268.387 228.084 268.417L227.93 268.451C227.672 268.506 227.523 269.105 227.483 270.247ZM237.929 265.172L239.531 265.094L239.515 265.017C239.892 264.935 240.25 265.172 240.586 265.729L240.862 267.369L241.108 268.502C241.47 270.169 241.981 271.362 242.641 272.082C242.597 272.541 242.377 272.814 241.982 272.899C241.415 273.023 240.861 272.459 240.32 271.21L240.179 270.809L239.947 270.859C239.646 272.454 238.98 273.614 237.951 274.342L237.587 274.529C236.02 274.437 235.047 273.515 234.666 271.763L234.632 271.609C234.159 269.427 234.838 267.463 236.671 265.715L237.929 265.172ZM236.285 271.762C236.592 272.595 236.96 272.965 237.389 272.872L237.466 272.855C238.068 272.724 238.619 270.707 239.12 266.803L239.103 266.725L238.322 266.733L238.271 266.744C236.897 267.043 236.175 268.441 236.106 270.938L236.285 271.762ZM249.352 261.612C250.737 261.941 251.754 263.726 252.404 266.966C252.863 268.666 253.354 269.809 253.877 270.397L253.9 270.5C253.944 270.868 253.719 271.16 253.226 271.375C252.263 271.494 251.274 269.262 250.261 264.68L249.643 263.573L249.328 263.614C248.897 264.445 248.749 265.377 248.883 266.409C248.944 267.187 249.185 268.421 249.606 270.11C249.449 270.63 249.195 270.91 248.844 270.95C248.241 270.991 247.732 269.933 247.318 267.774C246.535 265.66 245.959 264.625 245.591 264.669L245.436 264.702C244.954 264.969 244.763 265.577 244.861 266.527L246.204 271.47L246.251 271.81C246.282 272.199 246.037 272.522 245.518 272.779C244.64 272.88 243.688 269.948 242.663 263.983C242.636 263.611 242.85 263.312 243.305 263.088C243.827 263.172 244.105 263.336 244.14 263.581L244.218 263.564L245.338 263.132C245.937 263.074 246.622 263.41 247.392 264.143L247.449 264.157C247.999 262.796 248.633 261.948 249.352 261.612ZM264.082 259.492L265.684 259.414L265.668 259.337C266.045 259.255 266.403 259.492 266.739 260.048L267.015 261.689L267.261 262.822C267.623 264.488 268.134 265.682 268.794 266.402C268.75 266.861 268.53 267.134 268.135 267.219C267.568 267.342 267.014 266.779 266.473 265.53L266.332 265.129L266.1 265.179C265.799 266.773 265.133 267.934 264.104 268.661L263.74 268.848C262.173 268.757 261.2 267.835 260.819 266.083L260.785 265.929C260.312 263.747 260.991 261.783 262.824 260.035L264.082 259.492ZM262.438 266.082C262.745 266.915 263.113 267.285 263.542 267.192L263.619 267.175C264.221 267.044 264.772 265.027 265.273 261.122L265.256 261.045L264.475 261.053L264.424 261.064C263.05 261.363 262.328 262.76 262.259 265.258L262.438 266.082ZM267.57 244.245C268.12 244.126 268.721 245.732 269.372 249.062C270.037 252.371 270.518 254.713 270.817 256.087L270.868 256.076L272.364 255.508C272.877 255.469 273.18 255.664 273.273 256.093C273.4 256.677 272.923 257.087 271.84 257.322L271.221 257.699L273.327 266.28C273.386 266.879 273.183 267.229 272.719 267.33C272.169 267.449 271.807 267.105 271.631 266.298L271.189 264.263L269.89 258.528L269.731 258.293L268.614 258.616C268.111 258.617 267.812 258.403 267.719 257.974C267.603 257.441 268.138 257.047 269.323 256.789L269.301 256.686C268.823 254.487 268.024 250.641 266.903 245.146C266.809 244.717 267.032 244.416 267.57 244.245ZM283.452 244.817C284.912 244.499 286.203 245.352 287.326 247.375L287.483 248.096C287.811 249.608 287.358 251.703 286.123 254.382L286.151 254.51C286.872 254.354 287.681 254.808 288.578 255.872L288.999 256.941C289.525 259.363 288.834 261.564 286.925 263.543C286.609 263.828 286.22 264.02 285.756 264.121C284.371 264.206 283.608 263.922 283.466 263.269C283.5 263.01 283.64 262.746 283.888 262.476L284.351 262.375C284.789 262.568 285.094 262.646 285.265 262.608L285.678 262.519C286.588 262.321 287.23 260.968 287.602 258.458L287.578 257.978L287.366 256.999C287.202 256.243 286.742 255.947 285.986 256.111C285.522 256.212 284.748 256.542 283.665 257.101C283.173 256.992 282.89 256.766 282.816 256.422C282.771 256.216 283.3 255.507 284.404 254.296C285.725 251.761 286.248 249.866 285.976 248.612L285.875 248.149C285.415 246.774 284.721 246.187 283.793 246.388L283.639 246.422C282.969 246.567 282.45 247.076 282.081 247.947L282.376 248.558C282.276 249.011 282.055 249.275 281.711 249.35C281.065 249.274 280.673 248.919 280.535 248.283C280.282 247.115 281.176 245.976 283.22 244.867L283.452 244.817ZM293.621 252.133C295.356 251.756 297.134 252.818 298.954 255.318L299.684 256.941C300.135 259.019 299.043 260.533 296.407 261.484L296.227 261.523C295.609 261.657 295.015 261.615 294.446 261.397L294.188 261.453C295.991 268.509 297.156 273.256 297.686 275.695C297.662 276.33 297.453 276.69 297.058 276.776C296.508 276.895 296.138 276.517 295.948 275.641L295.875 275.306C295.3 272.661 294.204 268.069 292.586 261.531C291.729 258.659 291.13 256.442 290.791 254.879L290.673 254.338C290.483 253.462 290.654 252.966 291.187 252.85L291.547 252.772C291.898 252.894 292.104 253.1 292.168 253.392C292.602 252.741 292.948 252.387 293.205 252.331L293.621 252.133ZM293.582 256.674C293.799 259.163 294.517 260.275 295.737 260.01L296.149 259.921C297.54 259.619 298.215 258.789 298.172 257.431L298.121 257.199C297.871 256.048 297.013 254.993 295.545 254.035C294.95 253.697 294.446 253.572 294.034 253.662C293.46 253.75 293.309 254.755 293.582 256.674ZM307.224 249.043C308.608 249.372 309.625 251.157 310.275 254.397C310.734 256.097 311.225 257.24 311.749 257.828L311.771 257.931C311.815 258.299 311.591 258.591 311.098 258.806C310.134 258.925 309.146 256.693 308.133 252.111L307.514 251.004L307.2 251.045C306.769 251.876 306.62 252.808 306.754 253.84C306.815 254.618 307.056 255.852 307.477 257.541C307.32 258.061 307.066 258.341 306.715 258.381C306.113 258.422 305.604 257.364 305.189 255.205C304.406 253.091 303.83 252.056 303.462 252.1L303.308 252.133C302.826 252.4 302.634 253.008 302.733 253.958L304.076 258.901L304.123 259.241C304.154 259.63 303.909 259.953 303.389 260.21C302.511 260.311 301.56 257.379 300.534 251.414C300.507 251.042 300.721 250.743 301.176 250.519C301.698 250.603 301.977 250.767 302.012 251.012L302.089 250.995L303.209 250.563C303.808 250.505 304.493 250.841 305.264 251.574L305.321 251.588C305.871 250.228 306.505 249.379 307.224 249.043Z" fill="black"/>
<path d="M133.355 332.847C135.038 332.481 136.545 333.251 137.877 335.157L138.244 336.102C138.669 338.061 138.119 340.869 136.593 344.528C136.011 345.41 135.433 346.021 134.86 346.362L135.094 347.067L137.436 357.108C137.522 357.503 137.308 357.801 136.794 358.003C136.313 358.107 136.002 357.833 135.86 357.18C134.23 349.674 133.252 345.956 132.925 346.027C132.365 345.519 132.052 345.11 131.984 344.801C131.91 344.457 132.128 344.176 132.638 343.957L130.656 336.077C130.373 334.772 130.515 334.058 131.081 333.934L131.562 333.911C132.121 333.34 132.719 332.985 133.355 332.847ZM132.283 335.616L134.299 344.028L134.474 344.584C135.51 343.891 136.247 341.941 136.684 338.735C136.852 337.853 136.849 337.008 136.673 336.201C135.853 334.742 134.927 334.124 133.896 334.348L133.536 334.427C132.986 334.546 132.568 334.943 132.283 335.616ZM141.904 345.749C142.368 345.649 142.841 346.13 143.324 347.195L143.401 347.178C143.886 346.263 144.507 345.724 145.262 345.56C146.548 345.514 147.25 345.766 147.369 346.316C147.319 346.831 147.105 347.129 146.727 347.211L145.681 347.115L145.423 347.171C144.451 347.58 144.398 349.777 145.263 353.762L145.526 354.973C145.539 355.528 145.356 355.846 144.978 355.928C144.428 356.048 144.083 355.781 143.941 355.128L143.292 352.139C142.814 349.941 142.122 348.077 141.214 346.547C141.262 346.105 141.492 345.839 141.904 345.749ZM150.71 345.051C151.672 344.842 152.513 345.568 153.234 347.228C153.209 349.266 152.5 350.436 151.109 350.738L151.006 350.761L151.023 350.838C151.637 352.342 152.537 352.965 153.722 352.707C154.633 352.509 155.201 351.567 155.429 349.881L155.945 349.526C156.323 349.444 156.627 349.684 156.857 350.246C157.088 351.311 156.474 352.496 155.012 353.803L153.826 354.304C152.349 354.624 151.011 353.809 149.814 351.856C149.425 351.059 149.171 350.386 149.051 349.836L148.979 349.501C148.598 347.749 149.052 346.319 150.341 345.212L150.71 345.051ZM150.462 348.505L150.473 348.556L151.169 349.026C151.426 348.97 151.59 348.565 151.661 347.813L151.571 347.4C151.37 346.886 151.2 346.644 151.063 346.674L150.908 346.708C150.651 346.764 150.502 347.363 150.462 348.505ZM160.506 342.573C162.241 342.196 164.019 343.258 165.839 345.759L166.569 347.381C167.02 349.459 165.928 350.974 163.292 351.924L163.112 351.963C162.494 352.097 161.9 352.055 161.331 351.837L161.073 351.893C162.876 358.949 164.041 363.696 164.571 366.135C164.547 366.77 164.338 367.13 163.943 367.216C163.393 367.336 163.023 366.957 162.833 366.081L162.76 365.746C162.185 363.101 161.089 358.509 159.471 351.971C158.614 349.1 158.015 346.882 157.676 345.319L157.558 344.778C157.368 343.902 157.539 343.406 158.072 343.29L158.432 343.212C158.783 343.334 158.989 343.541 159.053 343.833C159.487 343.181 159.833 342.827 160.09 342.771L160.506 342.573ZM160.467 347.114C160.684 349.603 161.402 350.715 162.622 350.451L163.034 350.361C164.425 350.059 165.1 349.229 165.057 347.871L165.006 347.639C164.756 346.488 163.898 345.434 162.43 344.475C161.835 344.137 161.331 344.012 160.919 344.102C160.345 344.191 160.194 345.195 160.467 347.114ZM180.705 338.051C182.089 338.38 183.106 340.164 183.756 343.405C184.215 345.104 184.706 346.248 185.23 346.835L185.252 346.939C185.296 347.307 185.072 347.598 184.579 347.813C183.615 347.933 182.627 345.701 181.614 341.118L180.996 340.011L180.681 340.053C180.25 340.884 180.101 341.815 180.236 342.848C180.297 343.626 180.538 344.86 180.959 346.549C180.802 347.069 180.548 347.349 180.197 347.389C179.594 347.43 179.085 346.371 178.67 344.213C177.887 342.098 177.312 341.063 176.944 341.107L176.789 341.141C176.307 341.407 176.115 342.016 176.214 342.966L177.557 347.908L177.604 348.249C177.635 348.638 177.39 348.961 176.87 349.218C175.993 349.318 175.041 346.386 174.015 340.421C173.989 340.049 174.203 339.751 174.657 339.526C175.179 339.611 175.458 339.775 175.493 340.019L175.57 340.002L176.691 339.57C177.29 339.512 177.974 339.849 178.745 340.581L178.802 340.596C179.352 339.235 179.986 338.387 180.705 338.051ZM188.839 337.363L190.441 337.285L190.424 337.208C190.802 337.126 191.159 337.363 191.496 337.92L191.771 339.56L192.017 340.693C192.379 342.36 192.89 343.553 193.55 344.273C193.506 344.732 193.287 345.005 192.892 345.091C192.325 345.214 191.771 344.65 191.229 343.401L191.088 343L190.856 343.05C190.555 344.645 189.89 345.805 188.861 346.533L188.497 346.72C186.93 346.628 185.956 345.706 185.575 343.954L185.542 343.8C185.068 341.618 185.748 339.654 187.581 337.907L188.839 337.363ZM187.194 343.953C187.501 344.786 187.869 345.156 188.299 345.063L188.376 345.046C188.977 344.915 189.528 342.898 190.029 338.994L190.013 338.916L189.232 338.924L189.18 338.935C187.806 339.234 187.084 340.632 187.015 343.129L187.194 343.953ZM192.87 334.68C193.334 334.579 193.807 335.061 194.29 336.126L194.368 336.109C194.852 335.194 195.473 334.655 196.229 334.49C197.514 334.445 198.216 334.697 198.336 335.247C198.285 335.762 198.071 336.06 197.693 336.142L196.647 336.045L196.39 336.101C195.417 336.51 195.364 338.708 196.229 342.693L196.492 343.904C196.505 344.459 196.322 344.777 195.944 344.859C195.395 344.979 195.049 344.712 194.907 344.059L194.258 341.07C193.78 338.872 193.088 337.007 192.18 335.478C192.228 335.036 192.458 334.77 192.87 334.68ZM197.028 316.805C197.427 316.737 197.701 317.001 197.848 317.599L198.156 319.636L201.248 335.613L201.305 335.627C202.563 333.303 203.48 332.097 204.054 332.008L204.183 331.98C204.624 332.19 204.866 332.435 204.908 332.713C204.938 332.851 204.602 333.373 203.9 334.281C202.893 335.939 202.363 337.061 202.311 337.648C202.441 338.412 204.018 339.337 207.042 340.425C207.887 340.422 208.35 340.69 208.431 341.23C208.475 341.598 208.254 341.862 207.767 342.022C206.656 342.209 204.843 341.479 202.326 339.831L202.171 339.864C202.423 341.518 202.638 342.551 202.817 342.962C202.925 344.287 202.642 345.014 201.969 345.143C201.362 345.166 201.019 344.953 200.939 344.503L201.252 343.706L196.61 319.972L196.271 317.914C196.219 317.26 196.471 316.89 197.028 316.805ZM210.514 332.062C211.476 331.853 212.317 332.579 213.038 334.239C213.013 336.277 212.304 337.448 210.913 337.75L210.81 337.772L210.827 337.849C211.441 339.353 212.341 339.976 213.526 339.719C214.437 339.521 215.005 338.579 215.233 336.893L215.749 336.537C216.127 336.455 216.431 336.695 216.661 337.257C216.892 338.322 216.278 339.508 214.816 340.814L213.63 341.315C212.153 341.636 210.815 340.82 209.618 338.868C209.229 338.071 208.975 337.397 208.855 336.848L208.783 336.513C208.402 334.76 208.856 333.331 210.145 332.224L210.514 332.062ZM210.266 335.516L210.277 335.567L210.973 336.037C211.23 335.981 211.394 335.577 211.465 334.824L211.375 334.412C211.174 333.898 211.004 333.656 210.867 333.686L210.712 333.719C210.455 333.775 210.306 334.374 210.266 335.516ZM215.903 316.996C216.453 316.877 217.053 318.482 217.705 321.812C218.37 325.122 218.851 327.463 219.15 328.838L219.201 328.826L220.697 328.259C221.21 328.219 221.513 328.414 221.606 328.844C221.733 329.428 221.255 329.837 220.173 330.072L219.554 330.45L221.66 339.031C221.718 339.63 221.516 339.98 221.052 340.081C220.502 340.2 220.14 339.856 219.964 339.049L219.522 337.013L218.223 331.278L218.064 331.043L216.947 331.367C216.443 331.368 216.145 331.154 216.052 330.725C215.936 330.192 216.471 329.797 217.656 329.54L217.634 329.437C217.156 327.238 216.357 323.391 215.235 317.897C215.142 317.467 215.365 317.167 215.903 316.996ZM223.66 325.133C224.107 325.036 224.445 325.268 224.675 325.83C224.735 326.105 224.604 326.412 224.282 326.752L224.024 326.808C223.543 326.912 223.239 326.672 223.112 326.088C223.134 325.526 223.317 325.207 223.66 325.133ZM224.596 328.572C225.199 328.531 225.551 329.363 225.651 331.068C225.74 332.47 226.2 334.753 227.031 337.919C226.881 338.473 226.593 338.76 226.166 338.781C225.67 338.817 225.288 338.009 225.019 336.359C224.366 333.515 223.993 331.096 223.902 329.101C223.88 328.836 224.112 328.659 224.596 328.572ZM231.556 327.573C233.321 327.334 234.479 329.268 235.029 333.375L235.321 335.713C235.352 336.354 235.115 336.712 234.61 336.785C234.138 336.852 233.865 336.587 233.79 335.992L233.427 333.454C233.03 330.464 232.448 329.025 231.681 329.138C230.858 329.245 230.606 330.9 230.925 334.105L231.632 336.865C231.676 337.234 231.425 337.486 230.879 337.623C230.232 337.709 229.794 336.851 229.564 335.048L227.664 329.282C227.613 328.879 227.884 328.596 228.478 328.431C228.842 328.369 229.141 328.709 229.374 329.45L229.483 329.454C230.047 328.324 230.738 327.697 231.556 327.573ZM240.598 325.474C241.251 325.333 241.775 326.172 242.171 327.993C242.49 328.967 243.036 331.232 243.808 334.788C244.76 339.168 245.208 343.181 245.155 346.826C244.751 348.281 243.965 349.135 242.797 349.388C241.234 349.728 239.332 349.17 237.091 347.714L236.852 347.361C236.853 346.785 237.068 346.45 237.498 346.357C237.652 346.324 238.158 346.583 239.016 347.134C240.471 347.789 241.542 348.042 242.229 347.893L242.719 347.787C243.784 347.555 243.938 345.282 243.181 340.968C243 338.974 242.672 336.887 242.198 334.705L242.003 333.804C241.281 334.374 240.697 334.708 240.25 334.805C238.842 335.111 237.663 334.485 236.713 332.929C236.338 332.363 236.076 331.736 235.927 331.049C235.513 329.142 236.012 327.631 237.424 326.514L238.484 326.176C238.879 326.091 239.302 326.134 239.753 326.305L239.934 326.266C240.171 325.783 240.392 325.519 240.598 325.474ZM237.964 327.881C237.408 328.632 237.264 329.625 237.532 330.862C237.876 332.442 238.592 333.258 239.683 333.309L240.018 333.236C240.962 333.031 241.246 332.061 240.87 330.326C240.322 328.467 239.661 327.621 238.888 327.788L237.964 327.881ZM257.128 321.453C258.513 321.781 259.53 323.566 260.18 326.807C260.639 328.506 261.13 329.649 261.653 330.237L261.676 330.34C261.72 330.709 261.495 331 261.002 331.215C260.039 331.334 259.05 329.103 258.037 324.52L257.419 323.413L257.104 323.454C256.673 324.286 256.525 325.217 256.659 326.249C256.72 327.028 256.961 328.261 257.382 329.951C257.225 330.471 256.971 330.751 256.62 330.791C256.017 330.832 255.509 329.773 255.094 327.615C254.311 325.5 253.735 324.465 253.367 324.509L253.212 324.543C252.731 324.809 252.539 325.417 252.637 326.367L253.981 331.31L254.028 331.651C254.058 332.04 253.813 332.363 253.294 332.619C252.416 332.72 251.464 329.788 250.439 323.823C250.412 323.451 250.626 323.153 251.081 322.928C251.603 323.012 251.881 323.177 251.916 323.421L251.994 323.404L253.114 322.972C253.713 322.914 254.398 323.251 255.168 323.983L255.225 323.997C255.775 322.637 256.41 321.789 257.128 321.453ZM265.262 320.765L266.864 320.687L266.847 320.61C267.225 320.528 267.583 320.765 267.919 321.321L268.195 322.961L268.441 324.095C268.803 325.761 269.314 326.955 269.974 327.675C269.93 328.134 269.71 328.406 269.315 328.492C268.748 328.615 268.194 328.052 267.653 326.803L267.512 326.402L267.28 326.452C266.979 328.046 266.313 329.207 265.284 329.934L264.92 330.121C263.353 330.03 262.379 329.108 261.999 327.356L261.965 327.201C261.491 325.02 262.171 323.056 264.004 321.308L265.262 320.765ZM263.618 327.355C263.924 328.188 264.293 328.558 264.722 328.465L264.799 328.448C265.4 328.317 265.952 326.3 266.453 322.395L266.436 322.318L265.655 322.326L265.604 322.337C264.229 322.635 263.508 324.033 263.439 326.531L263.618 327.355ZM268.75 305.518C269.3 305.399 269.9 307.004 270.552 310.335C271.217 313.644 271.698 315.986 271.997 317.36L272.048 317.349L273.544 316.781C274.057 316.742 274.36 316.937 274.453 317.366C274.58 317.95 274.103 318.36 273.02 318.595L272.401 318.972L274.507 327.553C274.566 328.152 274.363 328.502 273.899 328.603C273.349 328.722 272.987 328.378 272.811 327.571L272.369 325.535L271.07 319.801L270.911 319.565L269.794 319.889C269.29 319.89 268.992 319.676 268.899 319.247C268.783 318.714 269.318 318.319 270.503 318.062L270.481 317.959C270.003 315.76 269.204 311.914 268.082 306.419C267.989 305.99 268.212 305.689 268.75 305.518ZM278.254 317.35C279.216 317.141 280.057 317.867 280.778 319.527C280.753 321.565 280.045 322.735 278.653 323.037L278.55 323.06L278.567 323.137C279.181 324.641 280.081 325.264 281.266 325.006C282.177 324.808 282.746 323.866 282.973 322.18L283.489 321.825C283.867 321.743 284.171 321.983 284.401 322.545C284.632 323.61 284.018 324.795 282.557 326.102L281.37 326.603C279.893 326.923 278.555 326.108 277.358 324.155C276.969 323.358 276.715 322.685 276.595 322.135L276.523 321.8C276.142 320.048 276.596 318.618 277.885 317.511L278.254 317.35ZM278.006 320.804L278.017 320.855L278.713 321.325C278.97 321.269 279.135 320.864 279.205 320.112L279.115 319.699C278.914 319.185 278.744 318.943 278.607 318.973L278.452 319.007C278.195 319.063 278.046 319.662 278.006 320.804ZM284.186 314.847C284.65 314.747 285.124 315.228 285.607 316.293L285.684 316.276C286.169 315.361 286.789 314.822 287.545 314.658C288.83 314.612 289.533 314.864 289.652 315.414C289.602 315.929 289.388 316.227 289.01 316.309L287.964 316.213L287.706 316.269C286.733 316.678 286.68 318.875 287.546 322.86L287.809 324.071C287.821 324.626 287.639 324.944 287.261 325.026C286.711 325.146 286.365 324.879 286.223 324.226L285.574 321.237C285.097 319.039 284.404 317.175 283.496 315.645C283.544 315.203 283.774 314.937 284.186 314.847ZM291.246 310.454C291.693 310.357 292.031 310.589 292.261 311.151C292.32 311.426 292.189 311.733 291.867 312.073L291.61 312.129C291.129 312.233 290.825 311.994 290.698 311.41C290.72 310.847 290.902 310.529 291.246 310.454ZM292.182 313.893C292.784 313.852 293.136 314.684 293.237 316.389C293.325 317.791 293.785 320.075 294.616 323.24C294.467 323.794 294.179 324.082 293.751 324.102C293.256 324.138 292.873 323.331 292.605 321.68C291.951 318.836 291.579 316.417 291.487 314.422C291.465 314.157 291.697 313.981 292.182 313.893ZM299.016 313.434L300.618 313.356L300.602 313.279C300.979 313.197 301.337 313.434 301.673 313.99L301.949 315.631L302.195 316.764C302.557 318.43 303.068 319.624 303.728 320.344C303.684 320.803 303.464 321.076 303.069 321.161C302.502 321.284 301.948 320.721 301.407 319.472L301.266 319.071L301.034 319.121C300.733 320.715 300.067 321.876 299.038 322.603L298.674 322.79C297.107 322.699 296.134 321.777 295.753 320.025L295.719 319.871C295.246 317.689 295.925 315.725 297.758 313.977L299.016 313.434ZM297.372 320.024C297.678 320.857 298.047 321.227 298.476 321.134L298.553 321.117C299.155 320.986 299.706 318.969 300.207 315.064L300.19 314.987L299.409 314.995L299.358 315.006C297.984 315.305 297.262 316.702 297.193 319.2L297.372 320.024ZM301.421 298.045C301.683 298.006 301.97 298.169 302.283 298.532C302.203 298.748 302.201 299.108 302.274 299.613L302.321 299.954L304.681 310.072C305.595 314.695 306.38 318.059 307.035 320.165L307.131 320.36C307.047 320.72 306.832 320.929 306.485 320.986C305.7 321.102 305.16 320.105 304.863 317.993C304.514 316.881 303.33 311.679 301.312 302.386C301.085 301.841 300.897 301.1 300.747 300.161L300.725 300.058C300.546 298.82 300.778 298.149 301.421 298.045ZM310.591 309.706C311.485 309.512 312.108 309.773 312.461 310.487C312.539 310.848 312.347 311.124 311.885 311.314L311.653 311.364C311.396 311.258 311.182 311.224 311.01 311.261L310.778 311.311C309.749 312.039 309.339 312.883 309.548 313.845L309.598 314.077C309.807 314.625 310.135 314.851 310.581 314.754L310.813 314.704L312.518 313.982C313.417 313.895 313.948 314.23 314.112 314.985C314.355 316.102 313.936 317.443 312.855 319.009C312.324 319.628 311.732 320.008 311.079 320.15C309.838 320.15 309.139 319.789 308.982 319.068C309.061 318.601 309.306 318.323 309.718 318.233L310.64 318.627L311.052 318.537C312.202 317.784 312.659 316.866 312.424 315.784L312.299 315.703C311.903 315.951 311.439 316.133 310.906 316.248C309.635 316.524 308.674 315.87 308.024 314.284C307.699 312.79 308.268 311.389 309.729 310.082L310.591 309.706Z" fill="black"/>
<path d="M53.8691 170.605C51.7303 171.07 49.8636 172.365 48.6796 174.206C47.4957 176.046 47.0916 178.282 47.5561 180.421C48.0206 182.56 49.3158 184.427 51.1567 185.611C52.9975 186.795 55.2333 187.199 57.3722 186.734L55.6206 178.67L53.8691 170.605Z" fill="#858181"/>
<path d="M42.1476 130.675C41.7068 130.77 41.3618 130.548 41.2615 130.087L38.3842 116.839L33.9648 117.799C33.5554 117.888 33.2127 117.676 33.1306 117.298C33.0462 116.91 33.2727 116.586 33.6821 116.497L43.9591 114.265C44.379 114.174 44.7089 114.377 44.7933 114.765C44.8753 115.143 44.6617 115.475 44.2418 115.567L39.8223 116.526L42.6996 129.774C42.7999 130.236 42.578 130.581 42.1476 130.675ZM51.2348 128.734C48.2535 129.381 45.7848 127.631 45.0347 124.177C44.2846 120.724 45.8049 118.107 48.7862 117.46C51.7674 116.812 54.2362 118.562 54.9863 122.016C55.7364 125.47 54.2161 128.086 51.2348 128.734ZM50.968 127.506C53.1305 127.036 54.1769 125.072 53.5796 122.322C52.9823 119.571 51.2154 118.218 49.0529 118.688C46.9009 119.155 45.8522 121.109 46.4518 123.87C47.0515 126.63 48.8161 127.973 50.968 127.506ZM62.1836 126.356C59.4228 126.956 57.0244 125.124 56.288 121.733C55.5493 118.332 56.9637 115.684 59.7035 115.089C61.4671 114.705 63.0821 115.41 63.9673 116.702L63.9988 116.695L62.7152 110.785C62.6194 110.344 62.8367 109.978 63.2461 109.889C63.6555 109.8 64.0156 110.041 64.1113 110.482L67.1687 124.559C67.2553 124.958 67.0335 125.303 66.6346 125.389C66.2461 125.474 65.8615 125.271 65.7725 124.862L65.369 123.004L65.3375 123.011C65.1154 124.62 64.0312 125.955 62.1836 126.356ZM62.1583 125.075C64.2368 124.624 65.2814 122.55 64.7069 119.905C64.1347 117.27 62.3217 115.806 60.2432 116.257C58.1437 116.713 57.1365 118.757 57.7156 121.423C58.2947 124.09 60.0588 125.531 62.1583 125.075ZM73.038 123.999C70.886 124.466 69.136 123.494 68.721 121.583C68.3175 119.725 69.4546 118.28 71.948 117.563L75.3141 116.612L75.1089 115.667C74.7669 114.092 73.5645 113.364 71.8639 113.734C70.4467 114.041 69.5959 114.831 69.35 116.28C69.2788 116.56 69.1172 116.727 68.8443 116.786C68.4768 116.866 68.1702 116.668 68.0881 116.29C68.0425 116.081 68.0613 115.813 68.1243 115.546C68.4085 114.121 69.7391 112.909 71.6286 112.499C74.127 111.956 75.9839 113.015 76.4672 115.24L77.9765 122.189C78.0677 122.609 77.8563 122.952 77.4679 123.036C77.0795 123.121 76.745 122.897 76.6538 122.477L76.3164 120.923L76.2849 120.93C75.9702 122.416 74.6651 123.645 73.038 123.999ZM73.0615 122.74C74.9721 122.325 76.1896 120.643 75.8134 118.911L75.5512 117.704L72.3554 118.628C70.6589 119.118 69.8678 120.081 70.1231 121.257C70.3876 122.475 71.5919 123.059 73.0615 122.74ZM82.181 125.959C81.4881 126.11 81.0053 125.962 80.905 125.5C80.8366 125.185 81.0009 124.929 81.3474 124.854C81.5678 124.806 81.6481 124.822 81.9106 124.765C82.6874 124.596 83.1959 124.002 83.3861 122.499L83.5022 121.616L77.4111 112.298C77.3313 112.183 77.2807 112.051 77.2579 111.946C77.1735 111.558 77.4127 111.242 77.8221 111.153C78.1475 111.083 78.3894 111.184 78.5952 111.524L83.8991 120.002L83.9306 119.995L85.2506 110.079C85.3072 109.682 85.4538 109.496 85.8002 109.421C86.1991 109.334 86.5395 109.535 86.6216 109.913C86.6444 110.018 86.653 110.159 86.6279 110.296L84.8685 121.935C84.465 124.683 83.8501 125.597 82.181 125.959Z" fill="#998794"/>
<line x1="83.7667" y1="201.678" x2="410.627" y2="130.688" stroke="#C7C7C7" stroke-width="1.2"/>
<circle cx="69.0262" cy="238.175" r="8.83384" transform="rotate(-12.2536 69.0262 238.175)" fill="#858181" stroke="#C7C7C7" stroke-width="1.2"/>
<line x1="96.7134" y1="261.289" x2="423.573" y2="190.299" stroke="#C7C7C7" stroke-width="1.2"/>
<line x1="79.2766" y1="286.054" x2="83.1662" y2="303.963" stroke="#858181" stroke-width="1.2"/>
<line x1="72.0997" y1="296.816" x2="90.0086" y2="292.927" stroke="#858181" stroke-width="1.2"/>
<line x1="108.777" y1="318.151" x2="435.637" y2="247.161" stroke="#C7C7C7" stroke-width="1.2"/>
<circle cx="94.0368" cy="354.647" r="8.83384" transform="rotate(-12.2536 94.0368 354.647)" stroke="#C7C7C7" stroke-width="1.2"/>
<line x1="92.2233" y1="345.665" x2="96.1129" y2="363.574" stroke="#C7C7C7" stroke-width="1.2"/>
<circle cx="81.0903" cy="295.037" r="8.83384" transform="rotate(-12.2536 81.0903 295.037)" stroke="#C7C7C7" stroke-width="1.2"/>
<line x1="121.724" y1="377.761" x2="448.584" y2="306.771" stroke="#C7C7C7" stroke-width="1.2"/>
<circle cx="107.256" cy="414.198" r="8.83384" transform="rotate(-12.2536 107.256 414.198)" stroke="#C7C7C7" stroke-width="1.2"/>
<line x1="105.443" y1="405.215" x2="109.332" y2="423.124" stroke="#C7C7C7" stroke-width="1.2"/>
<line x1="134.943" y1="437.312" x2="461.803" y2="366.322" stroke="#C7C7C7" stroke-width="1.2"/>
<circle cx="120.203" cy="473.808" r="8.83384" transform="rotate(-12.2536 120.203 473.808)" stroke="#C7C7C7" stroke-width="1.2"/>
<line x1="118.389" y1="464.825" x2="122.279" y2="482.734" stroke="#C7C7C7" stroke-width="1.2"/>
<line x1="147.89" y1="496.922" x2="474.75" y2="425.932" stroke="#C7C7C7" stroke-width="1.2"/>
<circle cx="131.994" cy="530.73" r="8.83384" transform="rotate(-12.2536 131.994 530.73)" stroke="#C7C7C7" stroke-width="1.2"/>
<line x1="130.18" y1="521.747" x2="134.07" y2="539.656" stroke="#C7C7C7" stroke-width="1.2"/>
<line x1="159.681" y1="553.844" x2="486.541" y2="482.854" stroke="#C7C7C7" stroke-width="1.2"/>
<circle cx="144.941" cy="590.34" r="8.83384" transform="rotate(-12.2536 144.941 590.34)" stroke="#C7C7C7" stroke-width="1.2"/>
<line x1="143.127" y1="581.357" x2="147.017" y2="599.266" stroke="#C7C7C7" stroke-width="1.2"/>
<line x1="172.628" y1="613.454" x2="499.488" y2="542.464" stroke="#C7C7C7" stroke-width="1.2"/>
<circle cx="158.16" cy="649.891" r="8.83384" transform="rotate(-12.2536 158.16 649.891)" stroke="#C7C7C7" stroke-width="1.2"/>
<line x1="156.347" y1="640.908" x2="160.236" y2="658.817" stroke="#C7C7C7" stroke-width="1.2"/>
<line x1="185.847" y1="673.005" x2="512.707" y2="602.015" stroke="#C7C7C7" stroke-width="1.2"/>
<circle cx="171.107" cy="709.501" r="8.83384" transform="rotate(-12.2536 171.107 709.501)" stroke="#C7C7C7" stroke-width="1.2"/>
<line x1="169.293" y1="700.518" x2="173.183" y2="718.427" stroke="#C7C7C7" stroke-width="1.2"/>
<line x1="198.794" y1="732.615" x2="525.654" y2="661.625" stroke="#C7C7C7" stroke-width="1.2"/>
<path d="M374.817 45.9017C377.379 47.9118 377.826 51.6183 375.816 54.1804C373.806 56.7425 370.099 57.19 367.537 55.1799C364.975 53.1698 364.528 49.4633 366.538 46.9012C368.548 44.3391 372.254 43.8916 374.817 45.9017Z" fill="#D8C1D1"/>
<path d="M382.226 48.4276C384.788 50.4377 385.236 54.1442 383.226 56.7063C381.215 59.2684 377.509 59.7158 374.947 57.7057C372.385 55.6956 371.937 51.9892 373.947 49.4271C375.958 46.865 379.664 46.4175 382.226 48.4276Z" fill="#D8C1D1"/>
<path d="M381.115 40.5948C383.677 42.6049 384.125 46.3114 382.114 48.8735C380.104 51.4356 376.398 51.883 373.836 49.8729C371.274 47.8628 370.826 44.1563 372.836 41.5943C374.846 39.0322 378.553 38.5847 381.115 40.5948Z" fill="#D8C1D1"/>
<path d="M388.796 44.3386C391.358 46.3487 391.805 50.0551 389.795 52.6172C387.785 55.1793 384.079 55.6268 381.517 53.6167C378.955 51.6066 378.507 47.9001 380.517 45.338C382.527 42.7759 386.234 42.3285 388.796 44.3386Z" fill="#D8C1D1"/>
<path d="M374.982 46.046L375.184 50.0024" stroke="white" stroke-width="1.5" stroke-linecap="round"/>
<path d="M379.67 45.806L379.873 49.7625" stroke="white" stroke-width="1.5" stroke-linecap="round"/>
<circle cx="56.0795" cy="178.564" r="8.83384" transform="rotate(-12.2536 56.0795 178.564)" stroke="#C7C7C7" stroke-width="1.2"/>
<line x1="54.266" y1="169.582" x2="58.1556" y2="187.491" stroke="#C7C7C7" stroke-width="1.2"/>
</g>
<defs>
<filter id="filter0_d_5_476" x="-48.883" y="-45.1328" width="664.155" height="911.243" filterUnits="userSpaceOnUse" color-interpolation-filters="sRGB">
<feFlood flood-opacity="0" result="BackgroundImageFix"/>
<feColorMatrix in="SourceAlpha" type="matrix" values="0 0 0 0 0 0 0 0 0 0 0 0 0 0 0 0 0 0 127 0" result="hardAlpha"/>
<feOffset dy="4"/>
<feGaussianBlur stdDeviation="26.4"/>
<feComposite in2="hardAlpha" operator="out"/>
<feColorMatrix type="matrix" values="0 0 0 0 0.247221 0 0 0 0 0.232076 0 0 0 0 0.232076 0 0 0 0.25 0"/>
<feBlend mode="normal" in2="BackgroundImageFix" result="effect1_dropShadow_5_476"/>
<feBlend mode="normal" in="SourceGraphic" in2="effect1_dropShadow_5_476" result="shape"/>
</filter>
</defs>
</svg>
