<svg width="118" height="98" viewBox="0 0 118 98" fill="none" xmlns="http://www.w3.org/2000/svg">
<path d="M48.5901 33.2729C57.0271 43.4606 55.6079 58.559 45.4202 66.9961C35.2325 75.4331 20.1341 74.0139 11.697 63.8262C3.25996 53.6385 4.67916 38.5401 14.8669 30.103C25.0546 21.6659 40.153 23.0851 48.5901 33.2729Z" fill="#EBC8E0"/>
<path d="M75.824 49.687C84.2611 59.8747 82.8419 74.9731 72.6542 83.4101C62.4664 91.8472 47.3681 90.428 38.931 80.2403C30.4939 70.0525 31.9131 54.9542 42.1009 46.5171C52.2886 38.08 67.387 39.4992 75.824 49.687Z" fill="#EBC8E0"/>
<path d="M78.1662 17.6374C86.6032 27.8251 85.184 42.9235 74.9963 51.3605C64.8086 59.7976 49.7102 58.3784 41.2731 48.1907C32.8361 38.0029 34.2553 22.9046 44.443 14.4675C54.6307 6.03043 69.7291 7.44962 78.1662 17.6374Z" fill="#EBC8E0"/>
<path d="M105.427 39.1196C113.864 49.3074 112.445 64.4058 102.258 72.8428C92.0698 81.2799 76.9714 79.8607 68.5343 69.673C60.0973 59.4852 61.5165 44.3868 71.7042 35.9498C81.8919 27.5127 96.9903 28.9319 105.427 39.1196Z" fill="#EBC8E0"/>
<path d="M51.4907 33.1399L48.8837 49.0193" stroke="white" stroke-width="7" stroke-linecap="round"/>
<path d="M70.3069 36.229L67.6999 52.1084" stroke="white" stroke-width="7" stroke-linecap="round"/>
</svg>
